<?xml version="1.0" encoding="UTF-8"?>
<svg xmlns="http://www.w3.org/2000/svg" viewBox="0 0 739 765" width="739" height="765" role="img" aria-labelledby="title desc">
  <title id="title">Brasão CMSM Advogados</title>
  <desc id="desc">Brasão heráldico com leão coroado portando um machado.</desc>
  <g fill-rule="evenodd" clip-rule="evenodd">
    <path fill="#000000" d="M62.50,0.00 L672.50,0.00 L672.50,552.00 L663.50,568.00 L640.00,592.50 L622.00,606.50 L618.00,607.50 L600.00,619.50 L593.00,622.50 L585.00,628.50 L567.00,638.50 L556.00,643.50 L547.00,645.50 L540.00,650.50 L535.00,651.50 L510.00,664.50 L502.00,666.50 L478.00,678.50 L451.00,694.50 L419.00,716.50 L397.00,733.50 L392.00,735.50 L370.00,756.50 L367.00,757.50 L335.00,729.50 L283.00,693.50 L250.00,674.50 L161.00,633.50 L145.00,625.50 L135.00,618.50 L131.00,617.50 L116.00,606.50 L102.00,598.50 L77.50,574.00 L74.50,568.00 L67.50,560.00 L62.50,549.00 Z"/>
    <path fill="#FFFFFF" d="M99.50,37.00 L101.00,35.50 L635.00,35.50 L635.50,530.00 L634.50,531.00 L633.50,537.00 L631.50,539.00 L631.50,541.00 L629.50,545.00 L624.50,551.00 L624.50,552.00 L623.00,552.50 L622.50,554.00 L615.00,561.50 L614.00,561.50 L605.00,569.50 L601.00,571.50 L595.00,576.50 L592.00,577.50 L589.00,580.50 L575.00,587.50 L572.00,590.50 L570.00,590.50 L562.00,594.50 L560.00,596.50 L552.00,600.50 L548.00,601.50 L546.00,603.50 L544.00,603.50 L531.00,610.50 L529.00,610.50 L527.00,612.50 L525.00,612.50 L523.00,614.50 L521.00,614.50 L519.00,616.50 L516.00,616.50 L512.00,619.50 L508.00,620.50 L504.00,623.50 L502.00,623.50 L497.00,626.50 L495.00,626.50 L491.00,629.50 L489.00,629.50 L461.00,643.50 L459.00,645.50 L450.00,649.50 L443.00,654.50 L438.00,656.50 L433.00,660.50 L430.00,661.50 L425.00,665.50 L417.00,669.50 L414.00,672.50 L398.00,682.50 L395.00,685.50 L391.00,687.50 L387.00,691.50 L383.00,693.50 L379.00,697.50 L376.00,698.50 L370.00,704.50 L366.00,704.50 L364.00,703.50 L359.00,698.50 L351.00,693.50 L344.00,687.50 L340.00,685.50 L333.00,679.50 L332.00,679.50 L312.00,665.50 L309.00,664.50 L307.00,662.50 L304.00,661.50 L302.00,659.50 L299.00,658.50 L297.00,656.50 L294.00,655.50 L287.00,650.50 L263.00,638.50 L261.00,636.50 L257.00,635.50 L255.00,633.50 L253.00,633.50 L246.00,629.50 L244.00,629.50 L242.00,627.50 L238.00,625.50 L236.00,625.50 L234.00,623.50 L232.00,623.50 L223.00,618.50 L221.00,618.50 L219.00,616.50 L217.00,616.50 L210.00,612.50 L208.00,612.50 L206.00,610.50 L204.00,610.50 L200.00,607.50 L198.00,607.50 L194.00,605.50 L192.00,603.50 L190.00,603.50 L183.00,599.50 L181.00,599.50 L179.00,597.50 L162.00,589.50 L160.00,587.50 L158.00,587.50 L153.00,583.50 L150.00,582.50 L148.00,580.50 L146.00,580.50 L143.00,577.50 L137.00,574.50 L134.00,571.50 L126.00,566.50 L117.00,557.50 L116.00,557.50 L115.50,556.00 L108.50,549.00 L105.50,543.00 L103.50,541.00 L102.50,537.00 L101.50,536.00 L101.50,533.00 L99.50,529.00 Z M111.50,527.00 L115.50,538.00 L118.50,541.00 L121.50,546.00 L133.00,556.50 L137.00,558.50 L144.00,564.50 L147.00,565.50 L150.00,568.50 L153.00,569.50 L155.00,571.50 L158.00,572.50 L165.00,577.50 L167.00,577.50 L171.00,580.50 L175.00,581.50 L177.00,583.50 L199.00,594.50 L201.00,594.50 L203.00,596.50 L207.00,598.50 L209.00,598.50 L211.00,600.50 L213.00,600.50 L222.00,605.50 L224.00,605.50 L230.00,608.50 L232.00,610.50 L234.00,610.50 L254.00,620.50 L256.00,620.50 L258.00,622.50 L268.00,627.50 L270.00,627.50 L274.00,630.50 L276.00,630.50 L278.00,632.50 L283.00,634.50 L285.00,636.50 L287.00,636.50 L289.00,638.50 L294.00,640.50 L301.00,645.50 L311.00,650.50 L314.00,653.50 L317.00,654.50 L323.00,659.50 L331.00,663.50 L335.00,667.50 L340.00,669.50 L344.00,673.50 L348.00,675.50 L351.00,678.50 L354.00,679.50 L366.00,689.50 L369.00,689.50 L376.00,683.50 L377.00,683.50 L383.00,678.50 L391.00,673.50 L394.00,670.50 L395.00,670.50 L400.00,666.50 L403.00,665.50 L406.00,662.50 L412.00,659.50 L415.00,656.50 L417.00,656.50 L426.00,649.50 L428.00,649.50 L436.00,643.50 L443.00,640.50 L445.00,638.50 L450.00,636.50 L452.00,634.50 L463.00,629.50 L465.00,627.50 L467.00,627.50 L469.00,625.50 L471.00,625.50 L488.00,616.50 L490.00,616.50 L492.00,614.50 L494.00,614.50 L501.00,610.50 L503.00,610.50 L507.00,607.50 L509.00,607.50 L520.00,601.50 L522.00,601.50 L541.00,591.50 L543.00,591.50 L545.00,589.50 L549.00,587.50 L551.00,587.50 L555.00,584.50 L557.00,584.50 L561.00,581.50 L563.00,581.50 L570.00,576.50 L575.00,574.50 L577.00,572.50 L587.00,567.50 L594.00,561.50 L602.00,556.50 L607.00,551.50 L608.00,551.50 L617.50,541.00 L618.50,538.00 L620.50,536.00 L622.50,532.00 L622.50,525.00 L623.50,524.00 L623.50,50.00 L622.50,48.00 L113.00,47.50 L112.50,526.00 Z M165.50,143.00 L166.50,142.00 L166.50,131.00 L167.50,130.00 L167.50,126.00 L169.50,123.00 L169.50,121.00 L171.50,118.00 L171.50,115.00 L173.50,111.00 L176.50,108.00 L177.50,105.00 L179.50,103.00 L183.50,96.00 L187.50,92.00 L188.50,89.00 L199.00,79.50 L203.00,78.50 L205.00,76.50 L207.00,77.50 L207.50,83.00 L209.50,86.00 L210.50,91.00 L212.50,94.00 L214.50,102.00 L216.50,104.00 L216.50,107.00 L218.50,109.00 L218.50,111.00 L220.50,113.00 L222.50,117.00 L229.00,123.50 L230.00,123.50 L239.50,131.00 L239.50,133.00 L237.50,137.00 L237.50,141.00 L236.50,142.00 L235.50,149.00 L234.50,150.00 L234.50,153.00 L233.50,154.00 L233.50,157.00 L231.50,160.00 L231.50,163.00 L223.00,164.50 L222.00,165.50 L217.00,166.50 L210.00,170.50 L208.00,170.50 L202.00,175.50 L194.00,180.50 L185.50,189.00 L183.50,193.00 L181.00,194.50 L174.50,186.00 L174.50,184.00 L172.50,181.00 L172.50,179.00 L170.50,176.00 L170.50,174.00 L168.50,170.00 L168.50,167.00 L167.50,166.00 L167.50,158.00 L166.50,157.00 L166.50,149.00 L165.50,148.00 Z M367.50,97.00 L368.50,96.00 L368.50,90.00 L372.00,89.50 L373.50,88.00 L373.50,84.00 L369.50,81.00 L370.50,77.00 L373.00,76.50 L373.50,82.00 L377.00,83.50 L378.50,86.00 L373.50,91.00 L372.50,93.00 L372.50,96.00 L370.50,98.00 L370.50,99.00 L369.00,99.50 Z M363.50,84.00 L366.50,84.00 L366.00,87.50 L363.50,85.00 Z M318.50,115.00 L319.50,114.00 L319.50,111.00 L321.50,107.00 L328.00,100.50 L333.00,98.50 L335.00,96.50 L339.00,94.50 L346.00,94.50 L347.00,95.50 L352.00,95.50 L358.00,98.50 L362.00,98.50 L365.00,100.50 L376.00,100.50 L377.00,99.50 L383.00,98.50 L384.00,97.50 L394.00,97.50 L395.00,98.50 L403.00,100.50 L405.00,102.50 L406.00,102.50 L411.50,109.00 L412.50,113.00 L414.50,116.00 L414.50,119.00 L412.50,122.00 L411.50,127.00 L410.00,128.50 L408.00,128.50 L407.50,120.00 L406.50,118.00 L403.00,115.50 L400.00,115.50 L398.00,116.50 L395.50,119.00 L393.50,124.00 L391.00,126.50 L386.00,126.50 L377.50,119.00 L376.50,115.00 L373.00,111.50 L371.00,111.50 L370.00,110.50 L366.00,111.50 L357.00,120.50 L356.00,120.50 L351.00,124.50 L347.00,124.50 L346.00,123.50 L344.00,123.50 L342.50,122.00 L342.50,118.00 L341.50,116.00 L338.00,112.50 L333.00,112.50 L332.00,113.50 L330.00,113.50 L326.50,119.00 L325.50,123.00 L322.00,124.50 L319.50,122.00 Z M249.50,118.00 L250.50,117.00 L250.50,115.00 L254.00,110.50 L256.00,109.50 L258.50,112.00 L258.50,123.00 L257.00,126.50 L253.00,126.50 L249.50,124.00 Z M353.50,129.00 L357.00,126.50 L360.00,126.50 L362.00,125.50 L364.50,119.00 L368.00,115.50 L371.00,115.50 L372.50,117.00 L372.50,119.00 L373.50,120.00 L373.50,125.00 L375.00,126.50 L378.00,126.50 L380.00,127.50 L381.50,129.00 L381.50,131.00 L380.00,132.50 L375.00,133.50 L371.50,137.00 L369.00,142.50 L364.00,142.50 L362.50,141.00 L362.50,137.00 L361.50,135.00 L360.00,133.50 L357.00,133.50 L355.00,132.50 L353.50,131.00 Z M330.50,135.00 L331.00,134.50 L332.00,135.50 L335.00,135.50 L337.50,132.00 L336.50,129.00 L334.00,126.50 L331.50,126.00 L331.50,122.00 L333.00,119.50 L335.00,119.50 L336.50,121.00 L336.50,125.00 L340.00,128.50 L345.00,128.50 L346.50,131.00 L341.00,133.50 L338.50,136.00 L337.50,141.00 L336.00,142.50 L333.00,142.50 L331.50,141.00 Z M396.50,129.00 L398.50,126.00 L398.50,124.00 L401.00,121.50 L402.00,121.50 L402.50,129.00 L401.00,130.50 Z M363.50,129.00 L363.50,131.00 L366.00,134.50 L369.00,134.50 L371.50,133.00 L371.50,129.00 L368.00,124.50 L367.00,124.50 Z M236.50,156.00 L237.50,155.00 L239.50,147.00 L242.50,142.00 L242.50,137.00 L243.50,136.00 L243.50,134.00 L247.00,130.50 L251.00,130.50 L252.00,131.50 L256.00,132.50 L258.50,135.00 L258.50,139.00 L257.50,140.00 L257.50,143.00 L255.50,147.00 L255.50,150.00 L254.50,151.00 L254.50,156.00 L253.50,157.00 L253.50,159.00 L251.50,162.00 L250.50,166.00 L248.00,166.50 L244.00,163.50 L237.00,162.50 Z M326.50,131.00 L328.00,130.50 L328.50,132.00 L328.00,132.50 Z M387.50,133.00 L389.00,131.50 L393.00,131.50 L394.50,133.00 L393.50,134.00 L394.50,137.00 L398.50,140.00 L396.50,144.00 L396.50,147.00 L395.00,148.50 L392.50,145.00 L392.50,140.00 L391.50,138.00 L387.50,135.00 Z M343.50,140.00 L346.00,137.50 L348.00,137.50 L352.00,135.50 L357.50,140.00 L357.50,143.00 L356.00,144.50 L345.00,144.50 L343.50,143.00 Z M374.50,143.00 L375.50,142.00 L375.50,140.00 L377.00,138.50 L379.00,137.50 L383.00,137.50 L388.50,142.00 L388.50,148.00 L385.00,148.50 L384.00,147.50 L381.00,147.50 L380.00,146.50 L376.00,146.50 L374.50,145.00 Z M360.50,151.00 L363.00,149.50 L365.00,149.50 L366.00,150.50 L374.00,150.50 L378.00,152.50 L384.50,153.00 L375.00,153.50 L374.00,152.50 L365.00,152.50 L364.00,151.50 Z M331.50,156.00 L335.00,155.50 L336.00,154.50 L350.00,154.50 L351.00,155.50 L360.00,155.50 L361.00,156.50 L364.00,156.50 L365.00,157.50 L377.00,157.50 L378.50,159.00 L358.00,159.50 L357.00,158.50 L333.00,158.50 Z M222.50,223.00 L223.50,222.00 L223.50,219.00 L225.50,215.00 L225.50,211.00 L226.50,210.00 L226.50,207.00 L227.50,206.00 L227.50,201.00 L228.50,200.00 L228.50,198.00 L231.50,191.00 L232.50,183.00 L233.50,182.00 L233.50,180.00 L236.50,173.00 L236.50,170.00 L238.00,168.50 L242.00,168.50 L246.50,172.00 L246.50,174.00 L245.50,175.00 L245.50,178.00 L244.50,179.00 L244.50,182.00 L243.50,183.00 L243.50,186.00 L242.50,187.00 L242.50,190.00 L241.50,191.00 L241.50,195.00 L240.50,196.00 L240.50,199.00 L239.50,200.00 L239.50,203.00 L238.50,204.00 L238.50,208.00 L236.50,211.00 L236.50,214.00 L235.50,215.00 L234.50,223.00 L233.00,225.50 L225.00,225.50 L224.00,226.50 L222.50,226.00 Z M190.50,324.00 L192.00,322.50 L194.00,322.50 L195.00,321.50 L203.00,321.50 L207.00,323.50 L211.00,323.50 L215.00,325.50 L218.00,325.50 L219.50,324.00 L219.50,321.00 L217.50,319.00 L222.00,318.50 L223.00,319.50 L225.50,318.00 L225.50,315.00 L222.50,312.00 L222.50,310.00 L220.50,306.00 L220.50,302.00 L223.00,300.50 L225.50,303.00 L227.50,310.00 L229.50,312.00 L231.50,316.00 L236.00,320.50 L238.00,320.50 L242.00,322.50 L245.00,322.50 L246.00,323.50 L249.00,323.50 L250.00,324.50 L274.00,325.50 L275.00,326.50 L280.00,326.50 L282.00,327.50 L283.50,329.00 L283.50,343.00 L286.50,350.00 L290.00,354.50 L291.00,354.50 L296.00,358.50 L299.00,358.50 L303.00,360.50 L305.00,360.50 L306.00,359.50 L313.00,357.50 L317.50,353.00 L317.50,352.00 L321.50,347.00 L321.50,345.00 L320.00,343.50 L316.00,343.50 L314.00,345.50 L312.00,345.50 L311.00,346.50 L304.00,344.50 L302.50,343.00 L302.50,336.00 L305.00,332.50 L309.00,330.50 L311.00,330.50 L312.00,331.50 L315.00,331.50 L327.00,338.50 L338.00,338.50 L339.00,337.50 L341.00,337.50 L347.00,332.50 L350.00,331.50 L353.50,328.00 L352.00,326.50 L346.00,327.50 L340.00,332.50 L338.00,333.50 L333.00,333.50 L332.00,334.50 L329.00,334.50 L319.00,329.50 L317.00,327.50 L315.00,327.50 L312.00,325.50 L308.00,325.50 L304.00,327.50 L302.00,329.50 L301.00,329.50 L298.50,333.00 L296.50,341.00 L297.50,342.00 L298.50,346.00 L300.00,347.50 L301.00,347.50 L303.00,349.50 L305.00,349.50 L310.50,352.00 L308.00,354.50 L305.00,354.50 L303.00,355.50 L302.00,354.50 L299.00,354.50 L297.00,352.50 L294.00,351.50 L291.50,349.00 L289.50,345.00 L289.50,343.00 L288.50,342.00 L288.50,329.00 L289.50,328.00 L289.50,326.00 L295.00,319.50 L297.00,318.50 L300.00,318.50 L301.00,317.50 L312.00,316.50 L313.00,315.50 L318.00,314.50 L322.50,311.00 L322.50,309.00 L320.00,308.50 L314.00,311.50 L303.00,312.50 L302.00,313.50 L294.00,314.50 L285.00,321.50 L283.00,320.50 L280.00,320.50 L278.00,321.50 L277.00,320.50 L273.00,320.50 L271.50,319.00 L272.50,316.00 L274.50,314.00 L275.50,311.00 L280.50,305.00 L280.50,304.00 L296.00,288.50 L297.00,288.50 L300.00,285.50 L310.00,280.50 L312.00,278.50 L320.00,274.50 L327.50,267.00 L328.50,265.00 L328.50,260.00 L327.50,258.00 L322.00,255.50 L319.00,255.50 L318.00,256.50 L315.00,256.50 L313.00,258.50 L312.00,258.50 L310.00,261.50 L309.00,261.50 L302.00,268.50 L301.00,268.50 L300.50,267.00 L302.50,265.00 L302.50,261.00 L303.50,260.00 L302.50,258.00 L302.50,255.00 L301.50,254.00 L301.50,251.00 L304.00,248.50 L310.00,249.50 L311.00,250.50 L323.00,250.50 L324.00,249.50 L327.00,249.50 L328.00,248.50 L330.00,248.50 L332.00,246.50 L336.00,244.50 L340.50,239.00 L340.50,236.00 L337.50,231.00 L337.50,228.00 L336.50,227.00 L335.50,223.00 L327.00,213.50 L325.00,212.50 L322.00,212.50 L321.00,211.50 L317.00,211.50 L316.00,212.50 L309.00,212.50 L306.00,214.50 L303.00,214.50 L302.00,215.50 L298.00,215.50 L293.50,212.00 L293.50,202.00 L295.00,199.50 L301.00,196.50 L308.00,197.50 L308.50,195.00 L304.50,192.00 L304.50,187.00 L303.50,186.00 L303.50,184.00 L305.00,182.50 L314.00,180.50 L318.00,175.50 L321.00,174.50 L322.50,172.00 L326.00,169.50 L339.00,169.50 L340.00,170.50 L341.00,169.50 L376.00,169.50 L377.00,170.50 L380.00,170.50 L380.50,172.00 L375.50,177.00 L376.00,180.50 L380.00,179.50 L384.00,175.50 L386.00,175.50 L390.00,172.50 L393.00,172.50 L393.50,173.00 L385.50,181.00 L383.50,185.00 L384.00,193.50 L386.50,193.00 L387.50,189.00 L388.50,188.00 L388.50,185.00 L390.50,181.00 L395.00,176.50 L404.00,171.50 L405.50,173.00 L405.50,175.00 L403.50,178.00 L403.50,180.00 L400.50,184.00 L400.50,190.00 L402.00,192.50 L404.00,192.50 L406.00,189.50 L417.00,190.50 L417.50,203.00 L418.50,204.00 L419.50,209.00 L422.00,211.50 L425.00,211.50 L426.00,210.50 L430.50,211.00 L432.50,233.00 L433.50,234.00 L436.50,245.00 L439.50,249.00 L439.50,252.00 L435.00,252.50 L431.00,250.50 L428.00,247.50 L425.00,247.50 L423.50,249.00 L423.50,250.00 L425.50,252.00 L425.50,255.00 L427.50,257.00 L427.50,267.00 L426.50,269.00 L425.00,269.50 L421.00,263.50 L420.00,263.50 L418.00,261.50 L414.50,262.00 L414.50,267.00 L416.50,270.00 L416.50,280.00 L415.00,282.50 L412.50,281.00 L412.50,278.00 L409.00,272.50 L406.00,271.50 L404.50,273.00 L403.50,277.00 L402.50,278.00 L402.50,281.00 L401.50,282.00 L401.50,285.00 L400.50,286.00 L400.50,292.00 L399.50,293.00 L399.50,311.00 L400.50,312.00 L400.50,315.00 L402.50,319.00 L401.00,319.50 L399.00,318.50 L392.50,313.00 L392.50,308.00 L391.50,307.00 L391.50,304.00 L390.00,302.50 L387.00,302.50 L386.50,306.00 L387.50,307.00 L387.50,319.00 L386.50,320.00 L386.50,328.00 L385.50,329.00 L385.50,331.00 L381.50,339.00 L370.00,351.50 L366.00,353.50 L363.00,353.50 L362.00,354.50 L357.00,354.50 L352.00,351.50 L348.50,348.00 L348.50,347.00 L359.00,346.50 L366.00,343.50 L371.00,338.50 L372.00,338.50 L374.50,335.00 L375.50,333.00 L375.50,330.00 L374.00,328.50 L373.00,328.50 L363.00,339.50 L359.00,341.50 L357.00,341.50 L356.00,342.50 L350.00,342.50 L348.00,340.50 L344.00,338.50 L340.50,343.00 L344.50,351.00 L351.00,356.50 L355.00,357.50 L356.00,358.50 L364.00,358.50 L365.00,357.50 L368.00,357.50 L375.00,353.50 L380.50,348.00 L380.50,347.00 L386.50,340.00 L390.50,332.00 L391.50,321.00 L393.00,319.50 L395.50,321.00 L396.50,323.00 L395.50,325.00 L395.50,334.00 L396.50,335.00 L396.50,345.00 L397.50,346.00 L397.50,353.00 L398.50,354.00 L399.50,361.00 L406.50,375.00 L414.50,385.00 L414.50,386.00 L426.50,399.00 L426.50,400.00 L428.00,400.50 L430.50,403.00 L430.50,404.00 L435.50,408.00 L435.50,409.00 L457.50,432.00 L463.50,444.00 L463.50,448.00 L462.50,449.00 L463.50,450.00 L463.50,458.00 L461.50,461.00 L460.50,467.00 L454.50,474.00 L454.50,475.00 L449.50,478.00 L449.50,481.00 L454.00,481.50 L456.50,487.00 L463.00,494.50 L464.00,494.50 L473.00,501.50 L475.00,501.50 L476.00,502.50 L480.00,502.50 L481.00,503.50 L489.00,502.50 L490.00,501.50 L493.00,501.50 L499.00,498.50 L501.00,496.50 L503.00,496.50 L508.50,504.00 L510.50,509.00 L513.00,511.50 L516.00,511.50 L523.00,514.50 L525.50,518.00 L525.50,521.00 L526.50,522.00 L526.50,524.00 L527.50,525.00 L527.50,527.00 L528.50,528.00 L528.50,530.00 L531.50,537.00 L531.50,540.00 L530.50,541.00 L529.50,548.00 L528.50,549.00 L528.50,551.00 L525.50,558.00 L525.50,561.00 L516.50,569.00 L516.50,570.00 L512.50,575.00 L512.50,577.00 L510.50,581.00 L508.00,583.50 L504.50,583.00 L503.50,581.00 L503.50,578.00 L504.50,577.00 L505.50,573.00 L503.00,570.50 L501.00,570.50 L498.50,572.00 L496.50,576.00 L496.50,584.00 L493.00,586.50 L489.00,586.50 L486.50,583.00 L486.50,581.00 L490.50,576.00 L489.00,572.50 L486.00,572.50 L483.50,575.00 L481.50,579.00 L479.00,581.50 L477.00,581.50 L474.50,579.00 L476.50,575.00 L481.50,571.00 L481.50,568.00 L480.00,566.50 L478.00,566.50 L474.00,570.50 L471.00,570.50 L469.50,569.00 L469.50,566.00 L470.50,564.00 L472.00,562.50 L476.00,561.50 L477.00,560.50 L486.00,561.50 L487.00,562.50 L492.00,563.50 L494.00,565.50 L497.00,565.50 L498.50,564.00 L498.50,562.00 L499.50,561.00 L499.50,559.00 L502.50,553.00 L504.50,546.00 L507.00,543.50 L508.00,543.50 L509.50,541.00 L509.50,540.00 L507.00,537.50 L501.00,537.50 L498.00,535.50 L493.00,534.50 L491.00,532.50 L483.00,528.50 L479.00,523.50 L476.00,523.50 L475.00,522.50 L474.00,523.50 L470.00,523.50 L469.00,524.50 L465.00,524.50 L464.00,525.50 L459.00,525.50 L458.00,526.50 L445.00,526.50 L444.00,525.50 L441.00,525.50 L440.00,524.50 L435.00,523.50 L431.00,520.50 L428.00,519.50 L426.00,517.50 L424.00,517.50 L414.50,507.00 L414.50,506.00 L410.50,501.00 L408.50,497.00 L407.50,492.00 L406.50,491.00 L406.50,471.00 L408.50,468.00 L408.50,465.00 L409.50,464.00 L410.50,459.00 L412.50,456.00 L413.50,451.00 L421.50,436.00 L424.00,433.50 L425.00,433.50 L428.50,429.00 L428.50,426.00 L423.50,421.00 L423.50,420.00 L419.50,415.00 L417.50,411.00 L417.50,409.00 L412.50,400.00 L412.50,398.00 L410.00,395.50 L408.00,395.50 L406.00,393.50 L391.00,386.50 L389.00,384.50 L385.00,382.50 L381.00,378.50 L380.00,378.50 L372.00,371.50 L371.00,371.50 L365.00,363.50 L359.00,363.50 L358.00,364.50 L353.00,364.50 L352.00,365.50 L349.00,365.50 L348.00,366.50 L335.00,367.50 L334.00,368.50 L319.00,368.50 L318.00,369.50 L309.00,369.50 L305.00,367.50 L302.00,367.50 L298.00,365.50 L295.00,365.50 L289.00,362.50 L285.00,362.50 L284.00,361.50 L279.00,360.50 L276.00,358.50 L274.00,358.50 L270.00,356.50 L267.00,356.50 L261.00,353.50 L258.00,353.50 L255.00,351.50 L253.00,351.50 L240.00,344.50 L236.00,339.50 L234.00,339.50 L226.00,349.50 L225.00,349.50 L223.00,351.50 L221.00,351.50 L215.50,347.00 L215.50,344.00 L219.50,342.00 L219.50,340.00 L218.00,338.50 L210.00,340.50 L207.00,342.50 L198.00,342.50 L197.00,341.50 L192.00,340.50 L190.50,339.00 L190.50,337.00 L193.00,334.50 L195.00,333.50 L198.00,333.50 L201.00,331.50 L205.00,331.50 L206.00,332.50 L215.00,332.50 L215.50,331.00 L213.00,328.50 L211.00,327.50 L200.00,327.50 L199.00,328.50 L195.00,328.50 L193.00,327.50 L190.50,325.00 Z M321.50,182.00 L323.00,183.50 L326.00,183.50 L332.00,189.50 L334.00,190.50 L339.00,190.50 L343.00,188.50 L352.00,178.50 L358.00,177.50 L359.50,175.00 L358.00,173.50 L342.00,173.50 L341.00,172.50 L337.00,172.50 L333.00,175.50 L325.00,178.50 Z M286.50,193.00 L288.50,189.00 L294.00,185.50 L298.00,185.50 L299.50,187.00 L299.50,191.00 L298.00,192.50 L294.00,189.50 L292.00,189.50 L289.00,194.50 Z M281.50,203.00 L283.00,199.50 L287.00,199.50 L288.50,201.00 L288.50,212.00 L289.50,213.00 L289.00,214.50 L285.00,213.50 L281.50,210.00 Z M304.50,221.00 L306.00,219.50 L309.00,218.50 L310.50,221.00 L310.50,225.00 L309.00,226.50 Z M266.50,222.00 L268.00,220.50 L271.00,220.50 L275.00,222.50 L283.00,229.50 L289.00,232.50 L297.00,232.50 L303.00,229.50 L307.00,229.50 L310.00,232.50 L312.00,232.50 L314.00,229.50 L317.00,229.50 L322.50,235.00 L327.50,243.00 L325.00,244.50 L320.00,245.50 L313.00,236.50 L312.00,236.50 L310.00,234.50 L307.00,234.50 L306.00,233.50 L300.00,233.50 L299.00,234.50 L296.00,234.50 L290.00,237.50 L285.00,237.50 L283.00,236.50 L275.00,228.50 L267.00,224.50 Z M226.50,232.00 L228.00,230.50 L230.00,230.50 L238.50,236.00 L238.50,237.00 L243.50,242.00 L244.50,245.00 L248.50,248.00 L248.50,249.00 L252.50,254.00 L256.50,262.00 L257.50,266.00 L261.00,269.50 L263.00,269.50 L267.00,272.50 L270.00,273.50 L272.00,275.50 L275.00,276.50 L289.50,287.00 L288.50,290.00 L286.00,292.50 L285.00,292.50 L274.00,304.50 L272.00,304.50 L270.00,302.50 L264.00,299.50 L239.00,277.50 L236.00,277.50 L233.00,279.50 L228.00,279.50 L226.50,278.00 L227.50,276.00 L227.50,273.00 L229.50,269.00 L229.50,266.00 L231.50,262.00 L231.50,259.00 L232.50,258.00 L232.50,256.00 L233.50,255.00 L233.50,253.00 L236.50,246.00 L236.50,242.00 L234.00,239.50 L232.00,239.50 L227.50,235.00 L227.50,233.00 Z M207.50,233.00 L212.00,232.50 L216.00,234.50 L217.50,237.00 L217.50,240.00 L216.00,241.50 L211.00,241.50 L207.50,238.00 Z M204.50,300.00 L205.50,299.00 L205.50,295.00 L207.50,292.00 L207.50,288.00 L209.50,284.00 L209.50,279.00 L210.50,278.00 L211.50,273.00 L213.00,272.50 L218.50,266.00 L217.50,265.00 L217.50,262.00 L215.50,259.00 L218.50,255.00 L218.50,246.00 L220.50,244.00 L222.50,240.00 L223.00,236.50 L229.50,245.00 L229.50,250.00 L228.50,251.00 L228.50,254.00 L227.50,255.00 L227.50,258.00 L226.50,259.00 L226.50,262.00 L225.50,263.00 L225.50,266.00 L224.50,267.00 L224.50,269.00 L221.50,276.00 L220.50,284.00 L219.50,285.00 L219.50,288.00 L217.50,292.00 L217.50,297.00 L216.50,298.00 L216.50,301.00 L215.50,302.00 L214.50,307.00 L211.00,307.50 L209.00,305.50 L208.00,305.50 L204.50,302.00 Z M204.50,247.00 L208.00,246.50 L209.00,247.50 L211.00,247.50 L213.50,250.00 L213.50,253.00 L212.00,254.50 L211.00,253.50 L209.00,253.50 L204.50,249.00 Z M423.50,312.00 L424.50,311.00 L424.50,306.00 L426.50,303.00 L426.50,301.00 L428.50,299.00 L431.50,293.00 L435.50,289.00 L435.50,288.00 L444.00,280.50 L449.00,278.50 L451.00,276.50 L453.00,276.50 L459.50,269.00 L459.50,268.00 L464.00,264.50 L468.00,262.50 L474.00,262.50 L482.00,266.50 L487.00,266.50 L488.00,265.50 L492.00,264.50 L499.00,257.50 L501.50,259.00 L502.50,261.00 L501.50,268.00 L497.50,272.00 L497.50,273.00 L499.00,274.50 L505.00,274.50 L508.50,278.00 L510.50,282.00 L510.50,289.00 L511.50,290.00 L510.50,292.00 L511.50,293.00 L511.50,296.00 L515.00,299.50 L521.50,302.00 L521.50,304.00 L516.00,307.50 L509.00,307.50 L507.00,306.50 L504.50,308.00 L504.50,313.00 L505.50,314.00 L505.50,316.00 L506.50,318.00 L514.50,326.00 L514.00,327.50 L509.00,328.50 L502.00,333.50 L494.00,333.50 L491.00,331.50 L489.00,331.50 L485.50,328.00 L484.50,324.00 L482.00,321.50 L476.00,324.50 L470.00,324.50 L468.00,323.50 L461.50,316.00 L464.00,313.50 L466.00,313.50 L468.00,311.50 L469.00,311.50 L473.50,306.00 L474.50,304.00 L474.50,291.00 L473.50,289.00 L468.00,283.50 L467.00,283.50 L465.00,281.50 L461.00,281.50 L460.00,280.50 L454.00,280.50 L453.00,281.50 L450.00,281.50 L444.00,286.50 L443.00,286.50 L436.50,293.00 L430.50,305.00 L430.50,317.00 L432.50,321.00 L432.50,324.00 L435.50,331.00 L436.50,337.00 L439.50,343.00 L452.00,356.50 L453.00,356.50 L466.00,367.50 L470.00,369.50 L472.00,369.50 L475.00,371.50 L477.00,371.50 L479.00,373.50 L486.00,375.50 L492.00,378.50 L494.00,380.50 L498.00,382.50 L500.00,382.50 L502.00,384.50 L510.00,388.50 L521.00,398.50 L528.00,402.50 L531.50,407.00 L534.50,413.00 L534.50,415.00 L536.50,419.00 L536.50,424.00 L537.50,425.00 L537.50,437.00 L536.50,438.00 L536.50,443.00 L529.50,454.00 L521.00,462.50 L520.00,462.50 L512.00,468.50 L510.00,468.50 L504.00,471.50 L498.00,471.50 L497.00,472.50 L492.00,472.50 L491.00,471.50 L473.00,471.50 L472.00,472.50 L466.00,473.50 L464.50,472.00 L464.50,467.00 L465.50,466.00 L465.50,463.00 L467.50,460.00 L467.50,457.00 L470.00,454.50 L472.00,454.50 L473.00,455.50 L477.00,455.50 L479.00,457.50 L481.00,458.50 L484.00,458.50 L485.00,459.50 L502.00,459.50 L508.00,456.50 L518.00,448.50 L521.00,447.50 L525.50,442.00 L525.50,437.00 L526.50,436.00 L525.50,425.00 L524.50,424.00 L524.50,422.00 L523.50,421.00 L521.50,414.00 L518.50,411.00 L517.50,408.00 L510.00,400.50 L508.00,400.50 L505.00,398.50 L503.00,398.50 L499.00,396.50 L491.00,390.50 L478.00,384.50 L470.00,378.50 L460.00,373.50 L457.00,370.50 L454.00,369.50 L446.00,362.50 L445.00,362.50 L437.50,355.00 L437.50,354.00 L432.50,348.00 L428.50,340.00 L428.50,338.00 L425.50,331.00 L425.50,328.00 L424.50,327.00 L424.50,322.00 L423.50,321.00 Z M203.50,260.00 L205.00,258.50 L208.00,258.50 L210.00,260.50 L211.00,260.50 L213.50,265.00 L212.50,267.00 L208.00,267.50 L203.50,262.00 Z M192.50,309.00 L194.00,307.50 L198.00,307.50 L199.00,308.50 L201.00,308.50 L205.00,310.50 L207.00,312.50 L216.00,316.50 L216.50,318.00 L214.00,318.50 L211.00,316.50 L204.00,316.50 L203.00,315.50 L196.00,315.50 L192.50,312.00 Z M168.50,436.00 L169.50,435.00 L169.50,431.00 L171.50,427.00 L173.50,416.00 L176.50,409.00 L176.50,406.00 L177.50,405.00 L177.50,403.00 L178.50,402.00 L178.50,400.00 L181.50,393.00 L181.50,390.00 L182.50,389.00 L182.50,386.00 L183.50,385.00 L183.50,382.00 L184.50,381.00 L184.50,378.00 L185.50,377.00 L185.50,373.00 L186.50,372.00 L187.50,366.00 L188.50,365.00 L188.50,361.00 L190.50,358.00 L193.50,347.00 L198.00,346.50 L199.00,347.50 L202.00,347.50 L202.50,351.00 L201.50,352.00 L201.50,355.00 L198.50,362.00 L198.50,367.00 L197.50,368.00 L197.50,370.00 L195.50,374.00 L195.50,377.00 L194.50,378.00 L194.50,381.00 L193.50,382.00 L193.50,384.00 L192.50,385.00 L192.50,387.00 L189.50,394.00 L189.50,397.00 L187.50,401.00 L187.50,405.00 L185.50,409.00 L185.50,412.00 L183.50,415.00 L183.50,417.00 L181.50,421.00 L181.50,424.00 L180.50,425.00 L180.50,429.00 L178.50,433.00 L178.50,436.00 L177.00,437.50 L172.00,437.50 L171.00,438.50 L170.00,438.50 Z M266.50,529.00 L267.50,528.00 L267.50,526.00 L270.00,523.50 L272.00,522.50 L275.00,522.50 L278.00,524.50 L282.00,525.50 L291.00,532.50 L299.00,532.50 L303.00,529.50 L306.00,528.50 L311.00,524.50 L314.00,523.50 L317.50,520.00 L317.50,516.00 L318.50,515.00 L318.50,510.00 L317.50,508.00 L318.50,507.00 L318.50,504.00 L319.50,503.00 L319.50,499.00 L317.50,497.00 L311.50,487.00 L302.50,477.00 L295.50,466.00 L295.50,464.00 L293.50,460.00 L293.50,456.00 L292.50,455.00 L292.50,446.00 L294.50,444.00 L294.50,443.00 L300.00,438.50 L312.00,433.50 L315.00,433.50 L316.00,432.50 L322.00,432.50 L323.00,431.50 L328.00,431.50 L329.00,430.50 L334.00,430.50 L335.00,429.50 L337.00,429.50 L344.00,426.50 L350.00,425.50 L353.00,423.50 L357.00,423.50 L358.00,422.50 L360.00,422.50 L361.50,421.00 L361.50,419.00 L357.50,415.00 L357.50,414.00 L348.00,404.50 L347.00,404.50 L330.00,386.50 L329.00,386.50 L325.00,382.50 L324.00,382.50 L317.00,376.50 L316.00,376.50 L314.50,375.00 L315.00,373.50 L318.00,373.50 L319.00,372.50 L324.00,372.50 L325.00,373.50 L332.00,373.50 L333.00,372.50 L348.00,372.50 L349.00,371.50 L353.00,371.50 L354.00,370.50 L357.00,370.50 L358.00,369.50 L363.00,369.50 L377.00,382.50 L384.00,386.50 L390.00,391.50 L401.00,396.50 L409.50,403.00 L415.50,417.00 L417.50,419.00 L418.50,422.00 L421.50,425.00 L422.50,428.00 L416.50,435.00 L410.50,446.00 L408.50,453.00 L405.50,458.00 L404.50,464.00 L403.50,465.00 L403.50,468.00 L401.50,472.00 L401.50,493.00 L403.50,496.00 L403.50,498.00 L406.50,505.00 L410.50,510.00 L410.50,513.00 L403.00,513.50 L402.00,512.50 L398.00,512.50 L396.50,514.00 L396.50,516.00 L395.50,517.00 L395.50,521.00 L396.50,522.00 L396.50,525.00 L397.50,526.00 L397.00,532.50 L395.00,532.50 L392.50,530.00 L390.50,526.00 L390.50,524.00 L388.50,520.00 L388.50,516.00 L387.50,515.00 L388.50,514.00 L388.50,511.00 L386.00,508.50 L382.00,507.50 L379.50,505.00 L377.50,501.00 L378.00,495.50 L379.00,495.50 L384.00,499.50 L388.00,499.50 L390.00,498.50 L394.50,493.00 L397.50,487.00 L397.50,480.00 L396.50,479.00 L395.50,475.00 L391.00,470.50 L389.00,469.50 L386.00,469.50 L385.00,468.50 L369.00,468.50 L368.00,469.50 L365.00,469.50 L364.00,470.50 L359.00,471.50 L345.00,478.50 L343.00,477.50 L339.50,472.00 L335.00,467.50 L334.50,468.00 L334.50,472.00 L338.50,480.00 L340.50,482.00 L344.50,489.00 L344.50,512.00 L339.50,522.00 L337.50,524.00 L333.50,533.00 L331.50,535.00 L329.50,539.00 L324.50,542.00 L322.50,546.00 L322.50,548.00 L319.00,552.50 L317.00,553.50 L314.00,553.50 L310.50,550.00 L310.50,544.00 L312.50,541.00 L312.50,539.00 L311.00,537.50 L309.00,537.50 L306.50,540.00 L304.50,544.00 L304.50,550.00 L305.50,551.00 L304.50,555.00 L299.00,560.50 L293.00,561.50 L288.50,558.00 L287.50,556.00 L287.50,552.00 L288.50,551.00 L288.50,549.00 L294.50,544.00 L294.50,542.00 L293.00,540.50 L290.00,540.50 L288.00,541.50 L284.50,544.00 L282.50,549.00 L280.00,551.50 L276.00,551.50 L273.50,549.00 L273.50,543.00 L276.00,539.50 L278.00,538.50 L282.00,538.50 L283.50,537.00 L283.50,535.00 L282.00,533.50 L276.00,533.50 L273.00,535.50 L270.00,535.50 L267.50,533.00 Z M458.50,476.00 L461.00,474.50 L461.50,475.00 L464.50,481.00 L472.50,489.00 L471.00,490.50 L468.00,491.50 L461.50,486.00 L458.50,480.00 Z M490.50,511.00 L490.50,512.00 L496.00,516.50 L499.00,517.50 L501.00,519.50 L503.50,519.00 L503.50,517.00 L494.00,509.50 L492.00,509.50 Z M358.50,581.00 L359.50,580.00 L359.50,578.00 L363.00,574.50 L366.00,574.50 L367.00,573.50 L368.00,574.50 L371.00,574.50 L373.50,577.00 L374.50,581.00 L375.50,582.00 L374.50,583.00 L373.50,587.00 L372.00,588.50 L368.00,590.50 L366.00,590.50 L362.00,588.50 L359.50,586.00 L358.50,584.00 Z M337.50,607.00 L341.00,602.50 L343.00,601.50 L348.00,601.50 L352.50,605.00 L353.50,607.00 L353.50,612.00 L350.00,616.50 L348.00,617.50 L343.00,617.50 L338.50,614.00 L337.50,612.00 Z M377.50,609.00 L378.50,608.00 L378.50,606.00 L383.00,601.50 L389.00,601.50 L392.50,604.00 L394.50,610.00 L393.50,611.00 L393.50,613.00 L389.00,617.50 L384.00,617.50 L378.50,613.00 Z"/>
  </g>
</svg>
